<svg width="502" height="113" xmlns="http://www.w3.org/2000/svg" xmlns:xlink="http://www.w3.org/1999/xlink"><defs><path id="a" d="M.042.058h525.913v112.9H.042z"/></defs><g fill="none" fill-rule="evenodd"><path d="M135.7 77.33c-.133 1.02-.501 1.697-1.102 2.029-.601.333-1.28.5-2.037.5-.89 0-1.57-.278-2.037-.832-.467-.554-.7-1.275-.7-2.163 0-.355.032-.742.1-1.164l.233-1.497 6.479-38.056c.31-1.685.889-2.85 1.735-3.493a4.62 4.62 0 0 1 2.872-.965c1.157 0 2.07.233 2.739.698.667.466 1.178 1.254 1.535 2.362l10.15 34.664h.134l10.151-34.664c.356-1.108.868-1.896 1.536-2.362.668-.465 1.58-.698 2.738-.698 1.069 0 2.025.321 2.872.965.845.643 1.424 1.808 1.735 3.493l6.479 38.056c.088.577.167 1.076.234 1.497.067.422.1.81.1 1.164 0 .888-.234 1.609-.702 2.163-.467.554-1.146.831-2.036.831-.758 0-1.437-.166-2.037-.5-.602-.331-.969-1.007-1.102-2.028l-5.543-38.057h-.133l-11.353 38.19c-.312.976-.725 1.62-1.235 1.93-.513.308-1.103.465-1.77.465-.668 0-1.258-.157-1.77-.466-.513-.31-.925-.953-1.235-1.93l-11.354-38.189h-.133L135.7 77.33M190.39 61.761c0 1.509.167 3.027.5 4.558.334 1.53.89 2.928 1.67 4.192a9.749 9.749 0 0 0 3.006 3.093c1.224.799 2.749 1.198 4.574 1.198 1.78 0 3.294-.4 4.54-1.198a9.639 9.639 0 0 0 3.04-3.093 13.361 13.361 0 0 0 1.669-4.192c.334-1.53.5-3.05.5-4.558 0-1.507-.166-3.027-.5-4.557a13.355 13.355 0 0 0-1.67-4.192 9.618 9.618 0 0 0-3.038-3.093c-1.247-.799-2.76-1.198-4.54-1.198-1.826 0-3.351.4-4.575 1.198a9.727 9.727 0 0 0-3.006 3.093 13.305 13.305 0 0 0-1.67 4.192 21.331 21.331 0 0 0-.5 4.557zm25.043 15.236c0 1.02-.312 1.752-.935 2.196-.624.443-1.225.665-1.803.665-.625 0-1.235-.222-1.837-.665-.601-.444-.9-1.176-.9-2.196v-2.462h-.135c-1.291 1.82-2.75 3.16-4.373 4.026-1.627.865-3.396 1.297-5.31 1.297-2.494 0-4.708-.5-6.645-1.497a14.896 14.896 0 0 1-4.909-4.025c-1.335-1.685-2.348-3.615-3.038-5.789a22.271 22.271 0 0 1-1.035-6.786c0-2.35.345-4.613 1.035-6.787.69-2.172 1.703-4.101 3.038-5.788a14.894 14.894 0 0 1 4.909-4.024c1.937-.999 4.15-1.498 6.645-1.498 2.047 0 3.828.41 5.342 1.231 1.514.821 2.961 1.986 4.341 3.493h.134v-1.863c0-1.02.3-1.752.901-2.195.602-.443 1.212-.666 1.837-.666.578 0 1.179.223 1.803.666.623.443.935 1.176.935 2.195v30.472zM223.712 64.156c-.712 0-1.313-.243-1.803-.732-.49-.487-.735-1.086-.735-1.796s.245-1.308.735-1.797c.49-.487 1.091-.731 1.803-.731h13.757c.712 0 1.313.244 1.804.731.49.49.734 1.088.734 1.797 0 .71-.245 1.309-.734 1.796-.491.49-1.092.732-1.804.732h-13.757M245.748 46.791c0-.975.268-1.74.802-2.295.534-.554 1.246-.832 2.137-.832.89 0 1.602.278 2.137.832.534.555.8 1.32.8 2.295v2.995h.135c.31-.666.757-1.364 1.336-2.097a14.555 14.555 0 0 1 1.903-1.995 9.416 9.416 0 0 1 2.27-1.464 5.967 5.967 0 0 1 2.504-.566c1.024 0 1.826.29 2.405.866.578.577.867 1.286.867 2.128 0 1.686-1.224 2.75-3.672 3.194a9.962 9.962 0 0 0-2.704.831 7.783 7.783 0 0 0-2.472 1.83c-.734.799-1.347 1.797-1.836 2.994-.49 1.198-.735 2.661-.735 4.39v16.834c0 .976-.267 1.742-.801 2.296-.535.554-1.247.831-2.137.831-.89 0-1.603-.277-2.137-.831-.534-.554-.802-1.32-.802-2.296v-29.94M288.147 59.632c0-1.242-.189-2.517-.567-3.825a11.324 11.324 0 0 0-1.703-3.527c-.757-1.041-1.735-1.896-2.938-2.56-1.202-.666-2.604-.999-4.207-.999-1.826-.044-3.362.244-4.608.865-1.247.622-2.27 1.453-3.073 2.494a10.49 10.49 0 0 0-1.769 3.56 16.473 16.473 0 0 0-.634 3.992h19.5zm-19.499 4.39c0 1.51.234 2.919.701 4.226a9.76 9.76 0 0 0 2.07 3.427 9.71 9.71 0 0 0 3.306 2.295c1.291.555 2.76.832 4.407.832 1.96 0 3.584-.244 4.876-.732 1.29-.488 2.37-1.032 3.238-1.63a28.152 28.152 0 0 0 2.205-1.663c.6-.51 1.168-.765 1.702-.765s1.024.221 1.47.665c.444.444.668 1.088.668 1.929 0 .71-.413 1.486-1.237 2.328-.823.844-1.914 1.63-3.271 2.362-1.359.733-2.884 1.343-4.575 1.83a18.49 18.49 0 0 1-5.142.732c-2.85 0-5.3-.5-7.345-1.497-2.05-.999-3.74-2.339-5.076-4.025-1.336-1.685-2.316-3.615-2.939-5.789a24.465 24.465 0 0 1-.935-6.786c0-2.395.368-4.68 1.102-6.853.734-2.173 1.78-4.091 3.138-5.754 1.358-1.664 3.027-2.995 5.01-3.992 1.98-.999 4.217-1.498 6.71-1.498 2.405 0 4.564.5 6.479 1.498 1.914.997 3.516 2.306 4.808 3.925 1.29 1.62 2.281 3.46 2.971 5.522a19.687 19.687 0 0 1 1.036 6.288c0 1.02-.223 1.796-.668 2.328-.445.532-1.313.798-2.604.798h-22.105zM297.895 53.644c0-1.64.355-3.082 1.068-4.324a10.115 10.115 0 0 1 2.772-3.127c1.135-.843 2.425-1.474 3.873-1.896a15.56 15.56 0 0 1 4.374-.633c1.202 0 2.504.156 3.907.467 1.402.31 2.681.742 3.838 1.296 1.159.556 2.127 1.21 2.906 1.963.779.755 1.169 1.597 1.169 2.529 0 .621-.224 1.175-.668 1.662-.446.49-1.114.732-2.003.732a2.8 2.8 0 0 1-1.703-.565 69.356 69.356 0 0 0-1.737-1.23c-.646-.444-1.413-.854-2.304-1.232-.89-.377-2.026-.565-3.405-.565-1.692 0-3.15.366-4.374 1.098-1.225.731-1.837 1.852-1.837 3.36 0 1.02.468 1.885 1.402 2.594.936.71 2.104 1.365 3.507 1.963 1.403.6 2.926 1.197 4.574 1.796a27.924 27.924 0 0 1 4.575 2.13c1.402.82 2.57 1.819 3.506 2.993.935 1.177 1.403 2.607 1.403 4.291 0 1.863-.368 3.472-1.103 4.825a10.442 10.442 0 0 1-2.905 3.393c-1.203.909-2.583 1.585-4.14 2.029-1.56.443-3.162.665-4.808.665-1.87 0-3.618-.211-5.243-.632-1.626-.421-3.038-.953-4.24-1.596-1.203-.643-2.149-1.365-2.838-2.163-.691-.798-1.036-1.574-1.036-2.33 0-.797.244-1.44.734-1.928s1.047-.732 1.67-.732c.668 0 1.313.222 1.937.666.623.443 1.357.943 2.203 1.496.846.555 1.826 1.054 2.94 1.497 1.11.445 2.47.666 4.073.666 2.137 0 3.816-.5 5.042-1.496 1.223-1 1.836-2.097 1.836-3.294 0-1.154-.468-2.13-1.402-2.928-.935-.798-2.104-1.53-3.507-2.196a70.616 70.616 0 0 0-4.574-1.962 32.255 32.255 0 0 1-4.574-2.196c-1.403-.82-2.572-1.797-3.507-2.928-.934-1.13-1.401-2.516-1.401-4.158M333.753 76.731c0 .976-.267 1.742-.8 2.296-.535.554-1.248.831-2.137.831-.892 0-1.603-.277-2.138-.831-.535-.554-.8-1.32-.8-2.296v-29.94c0-.975.265-1.74.8-2.295.535-.554 1.246-.832 2.138-.832.89 0 1.602.278 2.137.832.533.555.8 1.32.8 2.295v29.94zm-6.544-40.049c0-1.02.344-1.873 1.035-2.56.69-.689 1.547-1.032 2.572-1.032 1.023 0 1.88.343 2.57 1.031s1.035 1.542 1.035 2.561c0 1.02-.345 1.875-1.035 2.562-.69.688-1.547 1.031-2.57 1.031-1.025 0-1.883-.343-2.572-1.031-.69-.687-1.035-1.541-1.035-2.562zM363.935 61.761c0-1.507-.168-3.027-.501-4.557a13.373 13.373 0 0 0-1.67-4.192 9.62 9.62 0 0 0-3.04-3.093c-1.245-.799-2.76-1.198-4.54-1.198-1.826 0-3.35.4-4.574 1.198a9.725 9.725 0 0 0-3.005 3.093 13.34 13.34 0 0 0-1.67 4.192 21.33 21.33 0 0 0-.5 4.557c0 1.509.166 3.027.5 4.558.334 1.53.89 2.928 1.67 4.192a9.747 9.747 0 0 0 3.005 3.093c1.224.799 2.748 1.198 4.574 1.198 1.78 0 3.295-.4 4.54-1.198a9.641 9.641 0 0 0 3.04-3.093 13.38 13.38 0 0 0 1.67-4.192c.333-1.53.5-3.05.5-4.558zm-.602 13.24h-.134c-1.692 3.238-4.852 4.857-9.482 4.857-2.404 0-4.542-.5-6.41-1.497a14.849 14.849 0 0 1-4.776-4.025c-1.315-1.685-2.304-3.615-2.972-5.789a22.96 22.96 0 0 1-1.002-6.786c0-2.35.334-4.613 1.002-6.787.668-2.172 1.657-4.101 2.972-5.788a14.846 14.846 0 0 1 4.775-4.024c1.869-.999 4.007-1.498 6.41-1.498 1.158 0 2.238.144 3.24.433 1 .289 1.903.666 2.705 1.13.8.467 1.49.989 2.07 1.564.578.577 1.067 1.13 1.468 1.664h.134V31.222c0-.974.268-1.74.802-2.295.534-.554 1.245-.831 2.136-.831s1.603.277 2.137.831c.535.556.802 1.32.802 2.295v45.51c0 .975-.267 1.74-.802 2.295-.534.554-1.246.831-2.137.831-.89 0-1.602-.277-2.136-.831-.534-.554-.802-1.32-.802-2.296v-1.73zM399.525 59.632c0-1.242-.189-2.517-.567-3.825a11.324 11.324 0 0 0-1.702-3.527c-.759-1.041-1.736-1.896-2.939-2.56-1.202-.666-2.604-.999-4.208-.999-1.825-.044-3.361.244-4.607.865-1.247.622-2.27 1.453-3.073 2.494a10.49 10.49 0 0 0-1.769 3.56 16.509 16.509 0 0 0-.634 3.992h19.5zm-19.5 4.39c0 1.51.235 2.919.702 4.226a9.75 9.75 0 0 0 2.07 3.427 9.697 9.697 0 0 0 3.306 2.295c1.29.555 2.76.832 4.407.832 1.959 0 3.585-.244 4.876-.732 1.29-.488 2.37-1.032 3.238-1.63a28.02 28.02 0 0 0 2.204-1.663c.601-.51 1.169-.765 1.702-.765.535 0 1.025.221 1.47.665.445.444.668 1.088.668 1.929 0 .71-.412 1.486-1.235 2.328-.824.844-1.915 1.63-3.272 2.362-1.359.733-2.884 1.343-4.575 1.83a18.478 18.478 0 0 1-5.142.732c-2.85 0-5.3-.5-7.346-1.497-2.048-.999-3.74-2.339-5.075-4.025-1.337-1.685-2.316-3.615-2.939-5.789a24.465 24.465 0 0 1-.936-6.786c0-2.395.37-4.68 1.104-6.853.733-2.173 1.78-4.091 3.138-5.754 1.357-1.664 3.026-2.995 5.008-3.992 1.981-.999 4.218-1.498 6.711-1.498 2.405 0 4.565.5 6.479 1.498 1.914.997 3.517 2.306 4.808 3.925 1.29 1.62 2.28 3.46 2.972 5.522a19.707 19.707 0 0 1 1.035 6.288c0 1.02-.223 1.796-.668 2.328-.446.532-1.313.798-2.605.798h-22.104zM410.543 46.791c0-.975.267-1.74.8-2.295.535-.554 1.247-.832 2.138-.832.89 0 1.602.278 2.137.832.534.555.8 1.32.8 2.295v1.397l.135.134c1.29-1.685 2.805-2.883 4.54-3.593 1.738-.71 3.495-1.065 5.277-1.065 1.379 0 2.794.233 4.24.699 1.447.466 2.771 1.23 3.974 2.295 1.202 1.064 2.192 2.451 2.972 4.159.778 1.707 1.169 3.803 1.169 6.287v19.627c0 .976-.268 1.742-.802 2.296-.534.554-1.247.831-2.137.831-.892 0-1.603-.277-2.137-.831-.534-.554-.802-1.32-.802-2.296V57.437c0-1.553-.245-2.883-.734-3.992-.491-1.109-1.125-2.007-1.903-2.695a7.704 7.704 0 0 0-2.638-1.53 9.09 9.09 0 0 0-2.939-.499c-.98 0-1.96.166-2.938.499-.98.333-1.86.843-2.638 1.53-.779.688-1.414 1.586-1.903 2.695-.49 1.109-.736 2.44-.736 3.992V76.73c0 .976-.266 1.742-.8 2.296-.535.554-1.247.831-2.137.831-.89 0-1.603-.277-2.137-.831-.534-.554-.801-1.32-.801-2.296v-29.94M443.06 61.761c0-2.35.322-4.613.967-6.787.645-2.172 1.636-4.101 2.972-5.788 1.335-1.685 3.005-3.027 5.008-4.024 2.004-.999 4.364-1.498 7.08-1.498 3.026 0 5.375.444 7.045 1.332 1.669.887 2.504 1.928 2.504 3.125 0 .622-.223 1.188-.668 1.698-.444.51-1.025.765-1.736.765-.579 0-1.092-.1-1.536-.3l-1.403-.632a13.982 13.982 0 0 0-1.736-.632c-.667-.2-1.492-.299-2.47-.299-1.827 0-3.384.4-4.675 1.198a9.682 9.682 0 0 0-3.139 3.093 14.045 14.045 0 0 0-1.77 4.192 18.917 18.917 0 0 0-.567 4.557c0 1.509.188 3.027.567 4.558.378 1.53.968 2.928 1.77 4.192a9.703 9.703 0 0 0 3.139 3.093c1.29.799 2.848 1.198 4.674 1.198 1.025 0 1.88-.1 2.572-.3.689-.2 1.29-.432 1.802-.698.512-.266.97-.498 1.37-.7a2.96 2.96 0 0 1 1.335-.299c.668 0 1.213.211 1.636.633.424.421.635 1.031.635 1.83 0 1.109-.791 2.151-2.37 3.126-1.582.977-3.908 1.464-6.98 1.464-2.715 0-5.075-.5-7.079-1.497-2.003-.999-3.673-2.339-5.008-4.025-1.336-1.685-2.327-3.615-2.972-5.789a23.697 23.697 0 0 1-.968-6.786" fill="#199F8F"/><g><mask id="b" fill="#fff"><use xlink:href="#a"/></mask><path d="M496.078 59.632c0-1.242-.19-2.517-.568-3.825a11.34 11.34 0 0 0-1.702-3.527c-.758-1.041-1.737-1.896-2.939-2.56-1.202-.666-2.604-.999-4.207-.999-1.827-.044-3.362.244-4.608.865-1.247.622-2.27 1.453-3.072 2.494a10.478 10.478 0 0 0-1.77 3.56 16.543 16.543 0 0 0-.634 3.992h19.5zm-19.5 4.39c0 1.51.234 2.919.701 4.226a9.75 9.75 0 0 0 2.07 3.427 9.697 9.697 0 0 0 3.306 2.295c1.291.555 2.76.832 4.408.832 1.959 0 3.584-.244 4.875-.732 1.29-.488 2.37-1.032 3.238-1.63a27.996 27.996 0 0 0 2.204-1.663c.601-.51 1.169-.765 1.703-.765s1.025.221 1.47.665c.444.444.667 1.088.667 1.929 0 .71-.412 1.486-1.235 2.328-.824.844-1.916 1.63-3.272 2.362-1.359.733-2.884 1.343-4.574 1.83a18.485 18.485 0 0 1-5.144.732c-2.849 0-5.298-.5-7.345-1.497-2.048-.999-3.74-2.339-5.076-4.025-1.335-1.685-2.315-3.615-2.937-5.789a24.44 24.44 0 0 1-.936-6.786c0-2.395.368-4.68 1.103-6.853.734-2.173 1.78-4.091 3.137-5.754 1.358-1.664 3.028-2.995 5.01-3.992 1.98-.999 4.217-1.498 6.711-1.498 2.404 0 4.564.5 6.478 1.498 1.914.997 3.517 2.306 4.808 3.925 1.29 1.62 2.28 3.46 2.972 5.522a19.725 19.725 0 0 1 1.035 6.288c0 1.02-.224 1.796-.668 2.328-.446.532-1.313.798-2.605.798h-22.104zM80.566 5.37C52.243-7.81 18.558 4.38 5.328 32.597c-9.345 19.93-5.971 42.518 6.789 58.716L5.008 113l22.114-8.41a57.149 57.149 0 0 0 5.534 2.964c28.323 13.182 62.008.992 75.238-27.226 13.23-28.217.995-61.777-27.328-74.958" fill="#199F8F" mask="url(#b)"/></g><path d="M71.687 84.561h7.976V25.35l-30.635 8.902a1.451 1.451 0 0 1-1.27-.23 1.438 1.438 0 0 1-.578-1.15v-5.844h-7.94v8.99c0 .639-.424 1.202-1.04 1.38l-7.623 2.215v44.948h7.904V70.897c0-.102.014-2.525 1.235-4.958 1.17-2.331 3.659-5.11 8.87-5.11 2.957 0 5.038.894 6.497 2.093 1.461-1.199 3.541-2.093 6.497-2.093 5.213 0 7.7 2.779 8.87 5.11 1.223 2.433 1.237 4.856 1.237 4.958v13.664zM55.083 67.677a9.465 9.465 0 0 0-.721 3.226V84.8c.027.72.514.72.721.72.208 0 .695 0 .723-.744v-13.88c0-.012-.021-1.57-.723-3.22zm0 20.72c-2.647 0-3.609-2.15-3.609-3.596V70.897c0-.102.014-2.525 1.235-4.958.139-.276.295-.556.472-.838-1.172-.927-2.709-1.396-4.594-1.396-2.967 0-5.068 1.158-6.248 3.441-.945 1.83-.97 3.738-.97 3.757V86a1.44 1.44 0 0 1-1.444 1.438H29.134A1.44 1.44 0 0 1 27.69 86V38.534a1.44 1.44 0 0 1 1.039-1.38l7.623-2.215v-9.35c0-.793.646-1.438 1.444-1.438h10.827c.798 0 1.444.645 1.444 1.439v5.364l30.636-8.903a1.448 1.448 0 0 1 1.27.23c.363.272.578.698.578 1.151V86a1.44 1.44 0 0 1-1.444 1.438H70.243A1.441 1.441 0 0 1 68.799 86V70.897c0-.013-.025-1.92-.97-3.75-1.18-2.284-3.282-3.442-6.249-3.442-1.885 0-3.422.469-4.594 1.396.178.282.334.562.472.838 1.22 2.433 1.235 4.856 1.235 4.958v13.904c0 1.445-.962 3.596-3.61 3.596z" fill="#FFFFFE"/><path d="M61.58 50.76a2.885 2.885 0 0 0-2.887 2.877 2.885 2.885 0 0 0 2.887 2.877 2.885 2.885 0 0 0 2.887-2.877 2.885 2.885 0 0 0-2.887-2.876zm0 8.63c-3.184 0-5.775-2.58-5.775-5.753 0-3.172 2.59-5.753 5.775-5.753 3.185 0 5.775 2.581 5.775 5.753 0 3.173-2.59 5.754-5.775 5.754zM48.587 50.76a2.885 2.885 0 0 0-2.887 2.877 2.885 2.885 0 0 0 2.887 2.877 2.885 2.885 0 0 0 2.887-2.877 2.885 2.885 0 0 0-2.887-2.876zm0 8.63c-3.184 0-5.775-2.58-5.775-5.753 0-3.172 2.59-5.753 5.775-5.753 3.184 0 5.775 2.581 5.775 5.753 0 3.173-2.59 5.754-5.775 5.754z" fill="#FFFFFE"/></g></svg>
